HIERARCHY
ROOT Hips
{
	OFFSET 0.000000 0.000000 0.000000
	CHANNELS 6 Xposition Yposition Zposition Zrotation Yrotation Xrotation 
	JOINT LHipJoint
	{
		OFFSET 0.000000 0.000000 0.000000
		CHANNELS 3 Zrotation Yrotation Xrotation
		JOINT LeftUpLeg
		{
			OFFSET 1.363060 -1.794630 0.839290
			CHANNELS 3 Zrotation Yrotation Xrotation
			JOINT LeftLeg
			{
				OFFSET 2.448110 -6.726130 0.000000
				CHANNELS 3 Zrotation Yrotation Xrotation
				JOINT LeftFoot
				{
					OFFSET 2.562200 -7.039590 0.000000
					CHANNELS 3 Zrotation Yrotation Xrotation
					JOINT LeftToeBase
					{
						OFFSET 0.157640 -0.433110 2.322550
						CHANNELS 3 Zrotation Yrotation Xrotation
						End Site
						{
							OFFSET 0.000000 0.000000 0.000000
						}
					}
				}
			}
		}
	}
	JOINT RHipJoint
	{
		OFFSET 0.000000 0.000000 0.000000
		CHANNELS 3 Zrotation Yrotation Xrotation
		JOINT RightUpLeg
		{
			OFFSET -1.305520 -1.794630 0.839290
			CHANNELS 3 Zrotation Yrotation Xrotation
			JOINT RightLeg
			{
				OFFSET -2.542530 -6.985550 0.000000
				CHANNELS 3 Zrotation Yrotation Xrotation
				JOINT RightFoot
				{
					OFFSET -2.568260 -7.056230 0.000000
					CHANNELS 3 Zrotation Yrotation Xrotation
					JOINT RightToeBase
					{
						OFFSET -0.164730 -0.452590 2.363150
						CHANNELS 3 Zrotation Yrotation Xrotation
						End Site
						{
							OFFSET 0.000000 0.000000 0.000000
						}
					}
				}
			}
		}
	}
	JOINT LowerBack
	{
		OFFSET 0.000000 0.000000 0.000000
		CHANNELS 3 Zrotation Yrotation Xrotation
		JOINT Spine
		{
			OFFSET 0.028270 2.035590 -0.193380
			CHANNELS 3 Zrotation Yrotation Xrotation
			JOINT Spine1
			{
				OFFSET 0.056720 2.048850 -0.042750
				CHANNELS 3 Zrotation Yrotation Xrotation
				JOINT Neck
				{
					OFFSET 0.000000 0.000000 0.000000
					CHANNELS 3 Zrotation Yrotation Xrotation
					JOINT Neck1
					{
						OFFSET -0.054170 1.746240 0.172020
						CHANNELS 3 Zrotation Yrotation Xrotation
						JOINT Head
						{
							OFFSET 0.104070 1.761360 -0.123970
							CHANNELS 3 Zrotation Yrotation Xrotation
							End Site
							{
								OFFSET 0.000000 0.000000 0.000000
							}
						}
					}
				}
				JOINT LeftShoulder
				{
					OFFSET 0.000000 0.000000 0.000000
					CHANNELS 3 Zrotation Yrotation Xrotation
					JOINT LeftArm
					{
						OFFSET 3.362410 1.200890 -0.311210
						CHANNELS 3 Zrotation Yrotation Xrotation
						JOINT LeftForeArm
						{
							OFFSET 4.983000 -0.000000 -0.000000
							CHANNELS 3 Zrotation Yrotation Xrotation
							JOINT LeftHand
							{
								OFFSET 3.483560 -0.000000 -0.000000
								CHANNELS 3 Zrotation Yrotation Xrotation
								JOINT LeftFingerBase
								{
									OFFSET 0.000000 0.000000 0.000000
									CHANNELS 3 Zrotation Yrotation Xrotation
									JOINT LeftHandIndex1
									{
										OFFSET 0.715260 -0.000000 -0.000000
										CHANNELS 3 Zrotation Yrotation Xrotation
										End Site
										{
											OFFSET 0.000000 0.000000 0.000000
										}
									}
								}
								JOINT LThumb
								{
									OFFSET 0.000000 0.000000 0.000000
									CHANNELS 3 Zrotation Yrotation Xrotation
									End Site
									{
										OFFSET 0.000000 0.000000 0.000000
									}
								}
							}
						}
					}
				}
				JOINT RightShoulder
				{
					OFFSET 0.000000 0.000000 0.000000
					CHANNELS 3 Zrotation Yrotation Xrotation
					JOINT RightArm
					{
						OFFSET -3.136600 1.374050 -0.404650
						CHANNELS 3 Zrotation Yrotation Xrotation
						JOINT RightForeArm
						{
							OFFSET -5.241900 -0.000000 -0.000000
							CHANNELS 3 Zrotation Yrotation Xrotation
							JOINT RightHand
							{
								OFFSET -3.444170 -0.000000 -0.000000
								CHANNELS 3 Zrotation Yrotation Xrotation
								JOINT RightFingerBase
								{
									OFFSET 0.000000 0.000000 0.000000
									CHANNELS 3 Zrotation Yrotation Xrotation
									JOINT RightHandIndex1
									{
										OFFSET -0.622530 -0.000000 -0.000000
										CHANNELS 3 Zrotation Yrotation Xrotation
										End Site
										{
											OFFSET 0.000000 0.000000 0.000000
										}
									}
								}
								JOINT RThumb
								{
									OFFSET 0.000000 0.000000 0.000000
									CHANNELS 3 Zrotation Yrotation Xrotation
									End Site
									{
										OFFSET 0.000000 0.000000 0.000000
									}
								}
							}
						}
					}
				}
			}
		}
	}
}
MOTION
Frames: 8
Frame Time: 0.008333
27.262870 15.845504 10.788724 -11.972219 1.650272 -9.413381 14.325382 5.506383 6.942503 -19.448894 -26.237475 -29.660406 9.458984 7.834450 34.007902 -3.067574 -19.165881 -34.310678 1.354600 -7.367700 -20.809300 -10.954792 -1.521500 -7.656221 48.512245 -12.777361 24.158694 -4.105384 -7.690209 18.906317 -1.077205 7.720250 -32.724610 -0.004500 -0.435300 1.196100 3.621532 0.421917 2.072668 19.353625 -1.778259 24.601789 -5.359049 0.405160 -9.451244 -11.846227 -3.730176 -23.402244 5.749532 -4.368942 43.085128 3.371500 -2.305800 15.310600 -0.044009 -0.174543 1.551583 -95.622014 7.835226 15.420037 25.242949 -36.206627 -4.921915 2.273172 5.318057 -5.643892 22.127133 26.692661 7.420600 -7.125000 0.000000 0.000000 -9.627900 52.573500 -1.808100 -2.505331 -1.877843 0.120699 85.895511 2.249290 12.373208 -27.508529 37.802544 -6.212642 -1.678013 -0.430243 -15.082030 -24.558376 11.123027 -4.701000 7.125000 0.000000 0.000000 3.014000 -17.793200 1.951500 
27.289519 15.832586 10.907154 -11.852997 1.419664 -9.575257 14.398840 5.333827 6.762933 -19.754948 -26.285287 -28.743610 9.495585 7.931559 34.073472 -3.005011 -18.660405 -33.946913 2.057000 -8.983700 -25.744500 -10.869845 -1.442335 -7.655539 47.999704 -13.129508 24.372331 -4.127936 -7.968931 19.731249 -1.103375 7.632678 -32.791103 -0.011400 0.690900 -1.898700 3.521712 0.455289 2.186587 19.344260 -1.751180 24.572117 -5.299108 0.429530 -9.469412 -11.974348 -3.703769 -23.612200 5.830802 -4.305454 43.338940 3.442100 -2.282000 15.441500 -0.010354 -0.199336 1.558290 -95.840847 8.042237 15.405930 24.879465 -35.743833 -4.777012 2.293945 5.313984 -5.657145 22.134037 26.482301 7.348800 -7.125000 0.000000 0.000000 -9.567800 52.362800 -1.747000 -2.516817 -1.846830 0.138738 85.834202 2.030722 12.825768 -27.438455 37.687344 -6.186285 -1.730014 -0.424044 -15.888271 -25.002671 11.574745 -4.965800 7.125000 0.000000 0.000000 2.754600 -17.306900 1.812500 
27.317342 15.813796 11.024409 -12.086839 1.076603 -9.605763 14.483229 5.243799 6.613455 -19.674583 -26.088423 -28.049228 9.482903 7.922116 34.114955 -3.267977 -19.353574 -34.172284 1.131600 -6.756200 -18.995000 -10.801786 -1.439613 -7.568405 48.097661 -12.940981 24.292512 -4.207104 -8.307421 20.840581 -1.106053 7.630200 -32.802211 -0.034600 1.200700 -3.301200 3.770610 0.489144 2.140285 19.448397 -1.723659 24.564271 -5.409456 0.447523 -9.353757 -11.863593 -3.662070 -23.886944 5.653396 -4.187201 43.446265 3.391600 -2.248300 15.535300 0.003223 -0.228350 1.559972 -96.033160 8.150641 15.194040 24.572468 -35.354828 -4.647667 2.265085 5.410356 -5.014973 21.583964 27.279160 7.368100 -7.125000 0.000000 0.000000 -10.292000 52.959900 -2.032700 -2.537155 -1.822299 0.162016 85.892560 1.831092 13.534817 -27.499409 37.748137 -6.252451 -1.821822 -0.504289 -17.888464 -25.946066 11.604081 -5.180200 7.125000 0.000000 0.000000 2.173200 -17.188700 1.434900 
27.343449 15.785792 11.150065 -12.081460 0.623150 -9.709340 14.577332 5.094183 6.340934 -20.095699 -25.414222 -26.900929 9.546605 7.932689 34.105015 -3.840736 -20.042079 -33.200921 0.695700 -5.332000 -14.858000 -10.752336 -1.391670 -7.454320 48.055276 -12.519328 24.365997 -4.321567 -8.634126 21.978296 -1.054995 7.810942 -32.748667 -0.035500 1.215500 -3.341900 3.849694 0.576143 2.024944 19.291464 -1.629865 24.686233 -5.401827 0.506907 -9.230090 -11.659894 -3.583085 -23.978096 5.432157 -4.047021 43.348644 3.314800 -2.204500 15.502300 0.034613 -0.254308 1.543166 -96.246359 8.203439 14.881242 24.172567 -34.858817 -4.497394 2.352674 5.470799 -4.426883 21.802958 27.815993 7.589800 -7.125000 0.000000 0.000000 -10.293100 53.464300 -2.160600 -2.535417 -1.791892 0.169928 86.044512 1.654408 13.908689 -27.504606 37.751904 -6.281970 -1.878504 -0.587026 -18.909551 -26.633360 11.179442 -5.155000 7.125000 0.000000 0.000000 1.727000 -17.549900 1.126400 
27.371905 15.763299 11.281593 -11.592517 0.234846 -10.000352 14.684516 4.777588 5.950909 -21.243717 -24.789136 -25.149643 9.594232 7.995463 33.990226 -4.185842 -20.224392 -32.308028 0.473000 -4.410800 -12.235300 -10.695268 -1.229382 -7.411808 47.298022 -12.519577 24.811150 -4.407087 -8.919362 22.930491 -1.031305 7.952580 -32.836107 -0.054800 1.511000 -4.156100 3.572134 0.721529 2.178920 18.877744 -1.447961 24.782319 -5.232764 0.602454 -9.347385 -11.592265 -3.546648 -24.037993 5.394346 -4.008042 43.368312 3.305400 -2.190800 15.480000 0.098344 -0.271928 1.528292 -96.490082 8.359211 14.662708 23.605384 -34.135121 -4.295443 2.514262 5.423086 -4.170662 22.543318 27.391223 7.726500 -7.125000 0.000000 0.000000 -9.538000 53.200300 -1.937900 -2.521251 -1.747629 0.173494 86.148882 1.390477 13.641143 -27.228604 37.394967 -6.125359 -1.875414 -0.491186 -18.382603 -26.326020 12.036499 -5.435500 7.125000 0.000000 0.000000 1.962300 -16.723700 1.315400 
27.407858 15.755349 11.407971 -11.327474 -0.064064 -10.142407 14.703473 4.594494 5.716807 -21.898382 -24.445401 -24.097973 9.661170 8.092145 34.041221 -4.452363 -20.105414 -31.109570 0.292900 -3.480200 -9.618700 -10.640835 -1.120159 -7.379374 46.678880 -12.548121 25.031580 -4.489934 -9.177604 23.813930 -0.904948 8.371485 -32.687687 -0.055500 1.520700 -4.182700 3.652101 0.808703 2.161016 18.499538 -1.317441 24.904871 -5.226664 0.652073 -9.340707 -11.703930 -3.610887 -24.247929 5.649776 -4.135923 43.424820 3.382200 -2.210600 15.543700 0.201647 -0.294053 1.511105 -96.760830 8.352456 14.341563 22.946769 -33.324023 -4.072245 2.663502 5.281771 -4.029550 23.140517 26.203342 7.572900 -7.125000 0.000000 0.000000 -8.686000 52.214800 -1.552300 -2.505999 -1.727139 0.169736 86.263362 1.277643 13.265995 -26.919295 36.999810 -5.944602 -1.851814 -0.350063 -17.821723 -25.683584 13.347963 -5.802200 7.125000 0.000000 0.000000 2.431300 -15.487100 1.695400 
27.442637 15.757608 11.532544 -11.572757 -0.376326 -10.201042 14.643463 4.605153 5.605505 -21.757967 -23.964969 -23.853649 9.775682 8.187387 34.372656 -4.765133 -20.073551 -29.818485 0.142000 -2.428400 -6.691200 -10.553738 -1.104699 -7.310805 46.676271 -12.384269 25.106224 -4.565472 -9.400650 24.582708 -0.742678 8.712526 -32.186749 -0.050400 1.448500 -3.983800 4.127574 0.828147 2.001878 18.439683 -1.274374 24.966610 -5.426884 0.649626 -9.166227 -11.712940 -3.655995 -24.389977 5.735258 -4.208587 43.464091 3.391300 -2.221600 15.612200 0.284581 -0.337329 1.494216 -96.953921 8.240843 14.122176 22.341343 -32.576648 -3.872302 2.795781 5.219745 -3.938445 23.701626 25.610277 7.570300 -7.125000 0.000000 0.000000 -8.070100 51.754100 -1.349500 -2.518545 -1.715761 0.176456 86.449529 1.138945 13.072033 -26.808606 36.844809 -5.881241 -1.854397 -0.297910 -17.443478 -25.631177 13.788971 -5.962000 7.125000 0.000000 0.000000 2.483600 -15.056000 1.754900 
27.469376 15.765377 11.660187 -11.650046 -0.674884 -10.283032 14.560748 4.600762 5.481110 -21.778620 -23.387324 -23.706594 9.870878 8.301266 34.775936 -4.797570 -19.724604 -29.093902 0.158600 -2.566100 -7.072900 -10.418941 -1.067998 -7.290309 46.435830 -12.389345 25.397131 -4.617523 -9.596825 25.184818 -0.676840 8.650530 -31.708342 -0.111500 2.152600 -5.927500 4.128887 0.856604 2.058913 18.563438 -1.230927 24.786443 -5.422664 0.662820 -9.173272 -11.598862 -3.577983 -24.361937 5.534477 -4.081172 43.673956 3.337900 -2.193100 15.657600 0.313965 -0.383157 1.491133 -97.181629 8.267128 13.685175 21.816528 -31.862122 -3.674574 2.748657 5.286769 -2.981613 22.730039 26.207264 7.394100 -7.125000 0.000000 0.000000 -9.070700 52.092400 -1.594600 -2.552293 -1.676590 0.210218 86.545626 0.753392 13.068230 -26.755377 36.733745 -5.850657 -1.876842 -0.282677 -17.212255 -25.868729 13.937220 -6.083100 7.125000 0.000000 0.000000 2.342300 -14.880000 1.663700 
